<?xml version="1.0" standalone="no"?>
<!DOCTYPE svg PUBLIC "-//W3C//DTD SVG 20010904//EN"
 "http://www.w3.org/TR/2001/REC-SVG-20010904/DTD/svg10.dtd">
<svg version="1.0" xmlns="http://www.w3.org/2000/svg"
 width="370.000000pt" height="370.000000pt" viewBox="0 0 370.000000 370.000000"
 preserveAspectRatio="xMidYMid meet">
<metadata>
Created by potrace 1.11, written by Peter Selinger 2001-2013
</metadata>
<g transform="translate(0.000000,370.000000) scale(0.100000,-0.100000)"
fill="#000000" stroke="none">
<path d="M60 1840 l0 -1360 360 0 360 0 0 105 0 105 -240 0 -240 0 0 1155 0
1155 240 0 240 0 0 100 0 100 -360 0 -360 0 0 -1360z"/>
<path d="M2010 3100 l0 -100 240 0 240 0 0 -1155 0 -1155 -237 -2 -238 -3 -3
-102 -3 -103 366 0 365 0 0 1360 0 1360 -365 0 -365 0 0 -100z"/>
<path d="M3365 2571 c-48 -12 -90 -38 -122 -75 -87 -99 -65 -258 47 -332 50
-33 147 -44 201 -21 181 75 190 322 14 410 -39 19 -102 27 -140 18z"/>
<path d="M1300 2473 c0 -16 7 -113 15 -217 8 -104 13 -191 11 -193 -2 -2 -87
29 -190 68 -103 39 -189 69 -190 67 -1 -2 -17 -43 -34 -91 -23 -63 -28 -89
-19 -92 6 -2 93 -20 192 -40 99 -20 184 -37 188 -38 5 -2 -52 -81 -127 -177
-75 -96 -136 -177 -136 -180 1 -12 155 -109 163 -101 4 4 56 90 116 190 80
136 110 179 118 169 6 -7 56 -92 113 -188 57 -96 104 -177 106 -178 3 -5 151
95 157 105 3 5 -56 85 -129 178 -74 94 -134 173 -134 176 0 3 87 23 193 44
105 21 194 39 196 41 4 3 -49 166 -58 176 -4 4 -89 -24 -191 -62 -101 -38
-186 -67 -188 -65 -4 4 11 229 24 373 l6 62 -101 0 -101 0 0 -27z"/>
<path d="M3312 1474 c-128 -64 -163 -234 -69 -340 149 -171 433 -32 386 189
-31 143 -185 217 -317 151z"/>
</g>
</svg>
